<?xml version="1.0" encoding="UTF-8" standalone="no"?>
<!-- Created with Inkscape (http://www.inkscape.org/) -->

<svg
   width="297mm"
   height="210mm"
   viewBox="0 0 297 210"
   version="1.1"
   id="svg1"
   xml:space="preserve"
   inkscape:version="1.4.2 (f4327f4, 2025-05-13)"
   sodipodi:docname="5253.svg"
   xmlns:inkscape="http://www.inkscape.org/namespaces/inkscape"
   xmlns:sodipodi="http://sodipodi.sourceforge.net/DTD/sodipodi-0.dtd"
   xmlns:xlink="http://www.w3.org/1999/xlink"
   xmlns="http://www.w3.org/2000/svg"
   xmlns:svg="http://www.w3.org/2000/svg"><sodipodi:namedview
     id="namedview1"
     pagecolor="#ffffff"
     bordercolor="#000000"
     borderopacity="0.25"
     inkscape:showpageshadow="2"
     inkscape:pageopacity="0.0"
     inkscape:pagecheckerboard="0"
     inkscape:deskcolor="#d1d1d1"
     inkscape:document-units="mm"
     inkscape:zoom="0.71"
     inkscape:cx="637.32394"
     inkscape:cy="495.07042"
     inkscape:window-width="1920"
     inkscape:window-height="991"
     inkscape:window-x="-9"
     inkscape:window-y="-9"
     inkscape:window-maximized="1"
     inkscape:current-layer="layer1"><inkscape:page
       x="0"
       y="0"
       width="297"
       height="210"
       id="page2"
       margin="0"
       bleed="0" /></sodipodi:namedview><defs
     id="defs1" /><g
     inkscape:groupmode="layer"
     id="layer1"
     inkscape:label="トレース元"
     style="display:inline"><path
       style="fill:#e6e6e6;stroke-width:0.264583"
       d="m 298.59043,3.9881011 -17.28978,6.9159119 -0.76843,12.679172 1.53686,0.384217 0.76843,0.384217 -18.82664,175.203111 -53.79043,-8.06857 14.98448,-127.944373 -99.51229,-12.294955 -16.13713,147.539458 -67.238027,-8.837 7.684346,-57.6326 9.605434,1.92109 L 69.212686,43.562486 44.23856,40.488748 49.233386,0.53014517 99.565857,0.91436251 96.492118,18.58836 l 31.121602,4.610608 2.3053,-18.8266495 99.12807,12.6791715 3.07374,-11.5265195 -4.61061,-5.76326005 70.69599,0.76843472 z"
       id="path34"
       sodipodi:insensitive="true"
       inkscape:label="Base" /></g><g
     inkscape:groupmode="layer"
     id="layer2"
     inkscape:label="Floor1"><rect
       style="fill:none;stroke:#000000;stroke-width:0.322803;stroke-dasharray:none;stroke-opacity:1"
       id="rect40"
       width="25.12409"
       height="38.642792"
       x="75.874702"
       y="87.31913"
       transform="rotate(7.2102665)"
       inkscape:label="room5215" /><rect
       style="fill:none;stroke:#000000;stroke-width:0.269559;stroke-dasharray:none;stroke-opacity:1"
       id="rect41"
       width="34.247494"
       height="56.43816"
       x="69.423828"
       y="124.9901"
       transform="matrix(0.99022253,0.13949672,-0.14414243,0.98955695,0,0)"
       inkscape:label="room5214" /><rect
       style="fill:none;stroke:#000000;stroke-width:0.256059;stroke-dasharray:none;stroke-opacity:1"
       id="rect42"
       width="25.742666"
       height="37.186043"
       x="102.62242"
       y="129.79166"
       transform="matrix(0.99473062,0.1025231,-0.09362505,0.99560753,0,0)"
       inkscape:label="room5216" /><rect
       style="fill:none;stroke:#000000;stroke-width:0.256059;stroke-dasharray:none;stroke-opacity:1"
       id="rect43"
       width="25.742666"
       height="37.186043"
       x="104.03499"
       y="91.198982"
       transform="matrix(0.99381649,0.11103508,-0.10214486,0.99476953,0,0)"
       inkscape:label="room5217" /><rect
       style="fill:none;stroke:#000000;stroke-width:0.256059;stroke-dasharray:none;stroke-opacity:1"
       id="room5218"
       width="25.743"
       height="37.186043"
       x="103.3269"
       y="55.171337"
       transform="matrix(0.99473062,0.1025231,-0.09362505,0.99560753,0,0)" /><rect
       style="fill:none;stroke:#000000;stroke-width:0.307063;stroke-dasharray:none;stroke-opacity:1"
       id="rect44"
       width="83.281769"
       height="35.823227"
       x="138.54341"
       y="-12.367796"
       transform="matrix(0.99141744,0.13073434,-0.16354992,0.98653506,0,0)"
       inkscape:label="roomYUME" /><rect
       style="fill:#ff0000;stroke:#000000;stroke-width:0.264999;stroke-dasharray:none;stroke-opacity:1"
       id="rect45"
       width="19.085226"
       height="11.398121"
       x="71.834183"
       y="72.384811"
       transform="rotate(4.4352277)"
       inkscape:label="toiletW" /><rect
       style="fill:#0000ff;stroke:#000000;stroke-width:0.264999;stroke-dasharray:none;stroke-opacity:1"
       id="rect46"
       width="19.085226"
       height="11.398121"
       x="71.834183"
       y="60.721615"
       transform="rotate(4.4352277)"
       inkscape:label="toiletM" /><rect
       style="fill:none;stroke:#000000;stroke-width:0.423691;stroke-dasharray:none;stroke-opacity:1"
       id="rect47"
       width="53.445843"
       height="89.346237"
       x="229.99072"
       y="80.167877"
       transform="matrix(0.99518102,0.09805476,-0.10148965,0.9948366,0,0)"
       inkscape:label="Science Experiment" /><rect
       style="fill:#ff0000;stroke:#000000;stroke-width:0.264999;stroke-dasharray:none;stroke-opacity:1"
       id="rect48"
       width="19.085226"
       height="11.398121"
       x="264.03445"
       y="-67.913925"
       transform="matrix(0.99519789,0.09788342,0.09788342,-0.99519789,0,0)"
       inkscape:label="toiletW" /><rect
       style="display:inline;fill:#0000ff;stroke:#000000;stroke-width:0.264999;stroke-dasharray:none;stroke-opacity:1"
       id="rect49"
       width="19.085226"
       height="11.398121"
       x="264.03445"
       y="-79.577126"
       transform="matrix(0.9951979,0.09788342,0.09788342,-0.9951979,0,0)"
       inkscape:label="toiletM" /><path
       d="m 261.24131,99.44723 c 0.0692,-0.901449 -0.67893,-1.686651 -1.66879,-1.751377 -0.98985,-0.06473 -1.85057,0.61527 -1.91981,1.516719 -0.0692,0.901448 0.67894,1.686648 1.66879,1.751378 0.98986,0.0647 1.85057,-0.61527 1.91981,-1.51672 z m -2.9905,-0.195548 c 0.0461,-0.600512 0.62047,-1.054264 1.27988,-1.011146 0.6594,0.04312 1.15865,0.567072 1.11252,1.167585 -0.0461,0.600509 -0.62047,1.054259 -1.27987,1.011139 -0.65941,-0.0431 -1.15865,-0.567065 -1.11253,-1.167578 z m 3.39415,-1.146603 -0.20919,2.723411 c -0.0692,0.90145 0.67894,1.68665 1.66879,1.75138 l 4.78481,0.31287 0.0837,-1.08936 4.48575,0.29332 0.29286,-3.812775 -4.48576,-0.293323 0.0837,-1.089364 -4.7848,-0.312878 c -0.98985,-0.06473 -1.85057,0.615269 -1.91981,1.516719 z m 6.09458,-0.696314 -0.0418,0.544683 -3.91756,-0.256168 -0.0418,0.544682 8.40331,0.549492 -0.0837,1.089364 -4.51566,-0.295277 -0.0418,0.544679 4.51565,0.29528 -0.0837,1.08936 -8.40331,-0.54949 -0.0418,0.54469 3.91756,0.25616 -0.0418,0.54469 -4.21661,-0.27573 c -0.6594,-0.0431 -1.15865,-0.56707 -1.11252,-1.16758 l 0.20918,-2.723412 c 0.0461,-0.600511 0.62047,-1.054265 1.27988,-1.011146 z"
       id="path1-1-1"
       style="stroke-width:0.0143049"
       inkscape:label="toiletM" /><path
       d="m 53.297762,41.407095 16.170853,1.686101 1.9303,-18.512893 -16.170853,-1.686101 z m 2.705258,-17.47091 14.422652,1.503819 -1.732015,16.611209 -14.422652,-1.50382 z m 3.430865,5.315011 c 0.933103,0.09729 1.779823,-0.650648 1.885657,-1.665671 0.105835,-1.015024 -0.568378,-1.921549 -1.501481,-2.018842 -0.933102,-0.09729 -1.779823,0.650649 -1.885657,1.665672 -0.105835,1.015023 0.566195,1.92132 1.501481,2.018841 z m 0.297426,-2.852526 c 0.511349,0.05332 0.881393,0.550864 0.823395,1.107107 -0.058,0.556242 -0.522723,0.966749 -1.034072,0.913432 -0.511348,-0.05332 -0.881391,-0.550864 -0.823393,-1.107106 0.058,-0.556243 0.520537,-0.966978 1.03407,-0.913433 z m 0.982354,3.586703 -2.661634,-0.277523 c -0.692726,-0.07223 -1.320467,0.482278 -1.399037,1.235821 l -0.539086,5.170202 0.882841,0.09205 -0.396569,3.80337 3.411176,0.355676 0.396569,-3.803369 0.882842,0.09205 0.539086,-5.170202 c 0.07638,-0.753771 -0.423464,-1.425849 -1.116188,-1.498078 z m -0.108128,5.803859 -0.882842,-0.09205 -0.391612,3.755827 -1.881501,-0.19618 0.391612,-3.755827 -0.88284,-0.09205 0.457293,-4.385757 c 0.03073,-0.294762 0.276478,-0.511836 0.547448,-0.483583 l 2.661636,0.277524 c 0.270971,0.02825 0.466648,0.291354 0.435914,0.586116 l -0.457294,4.385757 z m 5.344765,-5.858583 c 0.933101,0.09729 1.779823,-0.650648 1.885658,-1.665671 0.105834,-1.015024 -0.568381,-1.921549 -1.501482,-2.018842 -0.933101,-0.09729 -1.779822,0.650649 -1.885656,1.665672 -0.105834,1.015023 0.568378,1.921548 1.50148,2.018841 z m 0.297427,-2.852526 c 0.511348,0.05332 0.881392,0.550864 0.823394,1.107107 -0.058,0.556242 -0.522723,0.966749 -1.034072,0.913432 -0.511348,-0.05332 -0.881391,-0.550864 -0.823392,-1.107106 0.058,-0.556243 0.522722,-0.96675 1.03407,-0.913433 z m 0.982353,3.586703 -2.661636,-0.277523 c -0.692723,-0.07223 -1.320465,0.482278 -1.399035,1.235821 l -0.539086,5.170202 0.882842,0.09205 -0.396569,3.803369 3.411175,0.355676 0.396569,-3.803369 0.882841,0.09205 0.539086,-5.170202 c 0.07638,-0.753771 -0.423462,-1.425849 -1.116187,-1.498078 z m -0.108128,5.803859 -0.882842,-0.09205 -0.391612,3.755827 -1.881501,-0.19618 0.391612,-3.755827 -0.882842,-0.09205 0.457293,-4.385757 c 0.03073,-0.294762 0.276479,-0.511836 0.54745,-0.483583 l 2.66382,0.277751 c 0.270972,0.02825 0.46665,0.291354 0.435915,0.586116 z m 7.33441,-7.313967 -1.049421,10.064661 1.459863,-1.289552 -0.140286,1.345441 -1.946485,1.719403 -1.549915,-2.083965 0.140286,-1.345441 1.162436,1.562973 1.049421,-10.064661 -1.459863,1.289552 0.140286,-1.345441 1.946484,-1.719403 1.549916,2.083965 -0.140286,1.345441 z"
       id="path1"
       style="stroke-width:0.0229152"
       inkscape:label="Elevator" /><g
       id="g55"
       transform="matrix(-0.02375022,-0.00330725,-0.00335718,0.02410873,248.25397,70.705965)"
       inkscape:label="Stairs"><polygon
         points="780,460 960,460 960,402 720,402 720,582 480,582 480,742 240,742 240,902 40,902 40,960 300,960 300,800 540,800 540,640 780,640 "
         id="polygon1" /><path
         d="M 165,230 A 105,105 0 1 0 60,125 105.12,105.12 0 0 0 165,230 Z m 0,-162 a 57,57 0 1 1 -57,57 57.06,57.06 0 0 1 57,-57 z"
         id="path1-9" /><path
         d="m 220.33,595.86 39.21,3.65 L 279,720 H 400 V 522.79 A 65.19,65.19 0 0 0 347.75,459.05 L 285,448.76 V 380 A 125.14,125.14 0 0 0 160,255 H 60 V 880 H 181.74 Z M 141.26,836 H 110 V 301 h 50 a 75.09,75.09 0 0 1 75,75 v 111.24 l 103.27,16.91 A 15,15 0 0 1 350,518.79 V 676 H 319 L 299.46,559.49 178.67,544.14 Z"
         id="path2" /></g><use
       x="0"
       y="0"
       xlink:href="#g55"
       id="use55"
       transform="translate(-137.5088,103.97007)"
       inkscape:label="Stairs" /><path
       d="m 71.854361,72.524062 c 0.06924,-0.901449 -0.678934,-1.686651 -1.66879,-1.751377 -0.989856,-0.06473 -1.850572,0.61527 -1.919812,1.516719 -0.06924,0.90145 0.678934,1.686651 1.66879,1.751377 0.989856,0.06473 1.850572,-0.615269 1.919812,-1.516719 z M 68.86386,72.328514 c 0.04613,-0.600512 0.620468,-1.054264 1.279874,-1.011146 0.659405,0.04312 1.158651,0.567072 1.112526,1.167585 -0.04613,0.600513 -0.620469,1.054264 -1.279874,1.011146 -0.659406,-0.04312 -1.158652,-0.567072 -1.112526,-1.167585 z m 3.394144,-1.146603 -0.209185,2.723413 c -0.06924,0.901449 0.678935,1.68665 1.668791,1.751377 l 4.784803,0.312877 0.08367,-1.089365 4.485753,0.293323 0.29286,-3.812779 -4.485754,-0.293323 0.08367,-1.089364 -4.784803,-0.312878 c -0.989856,-0.06473 -1.850572,0.615269 -1.919813,1.516719 z m 6.094585,-0.696314 -0.04184,0.544683 -3.917559,-0.256168 -0.04184,0.544682 8.403312,0.549492 -0.08367,1.089364 -4.515659,-0.295277 -0.04183,0.544682 4.515658,0.295278 -0.08367,1.089365 -8.403312,-0.54949 -0.04184,0.544683 3.917559,0.256167 -0.04184,0.544683 -4.216609,-0.275723 c -0.659405,-0.04312 -1.158651,-0.567072 -1.112526,-1.167584 l 0.209185,-2.723414 c 0.04613,-0.600511 0.620469,-1.054265 1.279875,-1.011146 z"
       id="path1-1"
       style="stroke-width:0.0143049"
       inkscape:label="toiletM" /><path
       d="m 71.118616,84.145256 c 0.06615,-0.768334 -0.722443,-1.444274 -1.758941,-1.507673 -1.036495,-0.0634 -1.932604,0.509497 -1.998753,1.27783 -0.06615,0.768334 0.722443,1.444274 1.758939,1.507672 1.036498,0.0634 1.932606,-0.509495 1.998755,-1.277829 z m -3.131411,-0.191535 c 0.04407,-0.511836 0.642026,-0.89412 1.332501,-0.851886 0.690476,0.04223 1.216693,0.493278 1.172627,1.005113 -0.04407,0.511837 -0.642027,0.89412 -1.332503,0.851887 -0.690476,-0.04223 -1.216691,-0.493279 -1.172625,-1.005114 z m 9.598274,-1.795392 0.09483,-1.101434 -4.858232,1.053925 c -0.365674,0.07914 -0.684609,0.236975 -0.92086,0.458205 -0.236153,0.22007 -0.373931,0.485826 -0.398312,0.769019 l -0.142291,1.65273 c -0.02438,0.283193 0.06644,0.562931 0.262417,0.809433 0.195983,0.246501 0.484542,0.441495 0.83273,0.565465 l 4.626811,1.634084 0.09483,-1.101433 1.834381,0.631399 0.128601,-1.493725 3.757692,0.229841 0.239815,-2.7855 -3.757693,-0.229842 0.128601,-1.493725 z m 1.128461,1.51811 3.789007,0.231758 -0.05995,0.696375 -3.789007,-0.231757 -0.03997,0.46425 3.789007,0.231757 -0.05995,0.696374 -3.789007,-0.231756 -0.111215,1.291776 -5.200192,-1.756661 -0.03958,0.459608 3.393529,1.168959 -0.05286,0.61397 -3.826732,-1.365799 c -0.470445,-0.16645 -0.763002,-0.534366 -0.730127,-0.916212 l 0.142189,-1.651569 c 0.03288,-0.381846 0.387051,-0.71137 0.879416,-0.817764 l 4.020582,-0.885813 -0.05286,0.613971 -3.558201,0.743752 -0.03957,0.459607 5.446602,-1.105441 z"
       id="path1-8"
       style="stroke-width:0.0135158"
       inkscape:label="toiletW" /><use
       x="0"
       y="0"
       xlink:href="#path1-8"
       id="use56"
       transform="translate(191.17077,4.0991784)"
       inkscape:label="toiletW" /></g></svg>
