<?xml version="1.0" encoding="UTF-8" standalone="no"?>
<!-- Created with Inkscape (http://www.inkscape.org/) -->

<svg
   width="273.89648mm"
   height="204.14937mm"
   viewBox="0 0 273.89648 204.14937"
   version="1.1"
   id="svg1"
   xml:space="preserve"
   xmlns:xlink="http://www.w3.org/1999/xlink"
   xmlns="http://www.w3.org/2000/svg"
   xmlns:svg="http://www.w3.org/2000/svg"><defs
     id="defs1"><rect
       x="398"
       y="314"
       width="35"
       height="13"
       id="rect1" /></defs><g
     id="layer2"
     style="display:inline"
     transform="translate(-2.4764839,7.4867005)"><rect
       style="display:inline;fill:none;stroke:#000000;stroke-width:0.322803;stroke-dasharray:none;stroke-opacity:1"
       id="rect40"
       width="25.12409"
       height="38.642792"
       x="75.874702"
       y="87.31913"
       transform="rotate(7.2102665)" /><rect
       style="fill:none;stroke:#000000;stroke-width:0.269559;stroke-dasharray:none;stroke-opacity:1"
       id="rect41"
       width="34.247494"
       height="56.43816"
       x="69.423828"
       y="124.9901"
       transform="matrix(0.99022253,0.13949672,-0.14414243,0.98955695,0,0)" /><rect
       style="fill:none;stroke:#000000;stroke-width:0.256059;stroke-dasharray:none;stroke-opacity:1"
       id="rect42"
       width="25.742666"
       height="37.186043"
       x="102.62242"
       y="129.79166"
       transform="matrix(0.99473062,0.1025231,-0.09362505,0.99560753,0,0)" /><rect
       style="fill:none;stroke:#000000;stroke-width:0.256059;stroke-dasharray:none;stroke-opacity:1"
       id="rect43"
       width="25.742666"
       height="37.186043"
       x="104.03499"
       y="91.198982"
       transform="matrix(0.99381649,0.11103508,-0.10214486,0.99476953,0,0)" /><rect
       style="fill:none;stroke:#000000;stroke-width:0.256059;stroke-dasharray:none;stroke-opacity:1"
       id="room5218"
       width="25.743"
       height="37.186043"
       x="103.3269"
       y="55.171337"
       transform="matrix(0.99473062,0.1025231,-0.09362505,0.99560753,0,0)" /><rect
       style="fill:none;stroke:#000000;stroke-width:0.307063;stroke-dasharray:none;stroke-opacity:1"
       id="rect44"
       width="83.281769"
       height="35.823227"
       x="138.54341"
       y="-12.367796"
       transform="matrix(0.99141744,0.13073434,-0.16354992,0.98653506,0,0)" /><rect
       style="fill:#ff0000;stroke:#000000;stroke-width:0.264999;stroke-dasharray:none;stroke-opacity:1"
       id="rect45"
       width="19.085226"
       height="11.398121"
       x="71.834183"
       y="72.384811"
       transform="rotate(4.4352277)" /><rect
       style="fill:#0000ff;stroke:#000000;stroke-width:0.264999;stroke-dasharray:none;stroke-opacity:1"
       id="rect46"
       width="19.085226"
       height="11.398121"
       x="71.834183"
       y="60.721615"
       transform="rotate(4.4352277)" /><rect
       style="fill:none;stroke:#000000;stroke-width:0.423691;stroke-dasharray:none;stroke-opacity:1"
       id="rect47"
       width="53.445843"
       height="89.346237"
       x="229.99072"
       y="80.167877"
       transform="matrix(0.99518102,0.09805476,-0.10148965,0.9948366,0,0)" /><rect
       style="fill:#ff0000;stroke:#000000;stroke-width:0.264999;stroke-dasharray:none;stroke-opacity:1"
       id="rect48"
       width="19.085226"
       height="11.398121"
       x="264.03445"
       y="-67.913925"
       transform="matrix(0.99519789,0.09788342,0.09788342,-0.99519789,0,0)" /><rect
       style="display:inline;fill:#0000ff;stroke:#000000;stroke-width:0.264999;stroke-dasharray:none;stroke-opacity:1"
       id="rect49"
       width="19.085226"
       height="11.398121"
       x="264.03445"
       y="-79.577126"
       transform="matrix(0.9951979,0.09788342,0.09788342,-0.9951979,0,0)" /><path
       d="m 261.24131,99.44723 c 0.0692,-0.901449 -0.67893,-1.686651 -1.66879,-1.751377 -0.98985,-0.06473 -1.85057,0.61527 -1.91981,1.516719 -0.0692,0.901448 0.67894,1.686648 1.66879,1.751378 0.98986,0.0647 1.85057,-0.61527 1.91981,-1.51672 z m -2.9905,-0.195548 c 0.0461,-0.600512 0.62047,-1.054264 1.27988,-1.011146 0.6594,0.04312 1.15865,0.567072 1.11252,1.167585 -0.0461,0.600509 -0.62047,1.054259 -1.27987,1.011139 -0.65941,-0.0431 -1.15865,-0.567065 -1.11253,-1.167578 z m 3.39415,-1.146603 -0.20919,2.723411 c -0.0692,0.90145 0.67894,1.68665 1.66879,1.75138 l 4.78481,0.31287 0.0837,-1.08936 4.48575,0.29332 0.29286,-3.812775 -4.48576,-0.293323 0.0837,-1.089364 -4.7848,-0.312878 c -0.98985,-0.06473 -1.85057,0.615269 -1.91981,1.516719 z m 6.09458,-0.696314 -0.0418,0.544683 -3.91756,-0.256168 -0.0418,0.544682 8.40331,0.549492 -0.0837,1.089364 -4.51566,-0.295277 -0.0418,0.544679 4.51565,0.29528 -0.0837,1.08936 -8.40331,-0.54949 -0.0418,0.54469 3.91756,0.25616 -0.0418,0.54469 -4.21661,-0.27573 c -0.6594,-0.0431 -1.15865,-0.56707 -1.11252,-1.16758 l 0.20918,-2.723412 c 0.0461,-0.600511 0.62047,-1.054265 1.27988,-1.011146 z"
       id="path1-1-1"
       style="stroke-width:0.0143049" /><path
       d="m 71.854361,72.524062 c 0.06924,-0.901449 -0.678934,-1.686651 -1.66879,-1.751377 -0.989856,-0.06473 -1.850572,0.61527 -1.919812,1.516719 -0.06924,0.90145 0.678934,1.686651 1.66879,1.751377 0.989856,0.06473 1.850572,-0.615269 1.919812,-1.516719 z M 68.86386,72.328514 c 0.04613,-0.600512 0.620468,-1.054264 1.279874,-1.011146 0.659405,0.04312 1.158651,0.567072 1.112526,1.167585 -0.04613,0.600513 -0.620469,1.054264 -1.279874,1.011146 -0.659406,-0.04312 -1.158652,-0.567072 -1.112526,-1.167585 z m 3.394144,-1.146603 -0.209185,2.723413 c -0.06924,0.901449 0.678935,1.68665 1.668791,1.751377 l 4.784803,0.312877 0.08367,-1.089365 4.485753,0.293323 0.29286,-3.812779 -4.485754,-0.293323 0.08367,-1.089364 -4.784803,-0.312878 c -0.989856,-0.06473 -1.850572,0.615269 -1.919813,1.516719 z m 6.094585,-0.696314 -0.04184,0.544683 -3.917559,-0.256168 -0.04184,0.544682 8.403312,0.549492 -0.08367,1.089364 -4.515659,-0.295277 -0.04183,0.544682 4.515658,0.295278 -0.08367,1.089365 -8.403312,-0.54949 -0.04184,0.544683 3.917559,0.256167 -0.04184,0.544683 -4.216609,-0.275723 c -0.659405,-0.04312 -1.158651,-0.567072 -1.112526,-1.167584 l 0.209185,-2.723414 c 0.04613,-0.600511 0.620469,-1.054265 1.279875,-1.011146 z"
       id="path1-1"
       style="stroke-width:0.0143049" /><path
       d="m 71.118616,84.145256 c 0.06615,-0.768334 -0.722443,-1.444274 -1.758941,-1.507673 -1.036495,-0.0634 -1.932604,0.509497 -1.998753,1.27783 -0.06615,0.768334 0.722443,1.444274 1.758939,1.507672 1.036498,0.0634 1.932606,-0.509495 1.998755,-1.277829 z m -3.131411,-0.191535 c 0.04407,-0.511836 0.642026,-0.89412 1.332501,-0.851886 0.690476,0.04223 1.216693,0.493278 1.172627,1.005113 -0.04407,0.511837 -0.642027,0.89412 -1.332503,0.851887 -0.690476,-0.04223 -1.216691,-0.493279 -1.172625,-1.005114 z m 9.598274,-1.795392 0.09483,-1.101434 -4.858232,1.053925 c -0.365674,0.07914 -0.684609,0.236975 -0.92086,0.458205 -0.236153,0.22007 -0.373931,0.485826 -0.398312,0.769019 l -0.142291,1.65273 c -0.02438,0.283193 0.06644,0.562931 0.262417,0.809433 0.195983,0.246501 0.484542,0.441495 0.83273,0.565465 l 4.626811,1.634084 0.09483,-1.101433 1.834381,0.631399 0.128601,-1.493725 3.757692,0.229841 0.239815,-2.7855 -3.757693,-0.229842 0.128601,-1.493725 z m 1.128461,1.51811 3.789007,0.231758 -0.05995,0.696375 -3.789007,-0.231757 -0.03997,0.46425 3.789007,0.231757 -0.05995,0.696374 -3.789007,-0.231756 -0.111215,1.291776 -5.200192,-1.756661 -0.03958,0.459608 3.393529,1.168959 -0.05286,0.61397 -3.826732,-1.365799 c -0.470445,-0.16645 -0.763002,-0.534366 -0.730127,-0.916212 l 0.142189,-1.651569 c 0.03288,-0.381846 0.387051,-0.71137 0.879416,-0.817764 l 4.020582,-0.885813 -0.05286,0.613971 -3.558201,0.743752 -0.03957,0.459607 5.446602,-1.105441 z"
       id="path1-8"
       style="stroke-width:0.0135158" /><use
       x="0"
       y="0"
       xlink:href="#path1-8"
       id="use56"
       transform="translate(191.17077,4.0991784)" /><text
       xml:space="preserve"
       transform="scale(0.26458333)"
       id="text1"
       style="text-align:start;writing-mode:lr-tb;direction:ltr;white-space:pre;shape-inside:url(#rect1);display:inline;fill:#fefefe;stroke:#000000;stroke-width:0.967559"><tspan
         x="398"
         y="337.94796"
         id="tspan14"><tspan
           dx="0 7.6289062 7.6289062 7.6289062"
           id="tspan13">5214</tspan></tspan></text><text
       xml:space="preserve"
       style="font-size:7.55566px;text-align:start;writing-mode:lr-tb;direction:ltr;text-anchor:start;fill:#fefefe;stroke:#000000;stroke-width:0.609213"
       x="129.2718"
       y="71.508011"
       id="text2"
       transform="scale(0.78128664,1.27994)"><tspan
         id="tspan2"
         style="stroke-width:0.609213"
         x="129.2718"
         y="71.508011">5218</tspan><tspan
         style="stroke-width:0.609213"
         x="129.2718"
         y="80.952583"
         id="tspan3" /></text><text
       xml:space="preserve"
       style="font-size:6.83968px;text-align:start;writing-mode:lr-tb;direction:ltr;text-anchor:start;fill:#fefefe;stroke:#000000;stroke-width:0.551483"
       x="131.22726"
       y="95.555794"
       id="text4"
       transform="scale(0.75381468,1.326586)"><tspan
         id="tspan4"
         style="stroke-width:0.551483"
         x="131.22726"
         y="95.555794">5217</tspan></text><text
       xml:space="preserve"
       style="font-size:7.29994px;text-align:start;writing-mode:lr-tb;direction:ltr;text-anchor:start;fill:#fefefe;stroke:#000000;stroke-width:0.588593"
       x="121.54942"
       y="126.3104"
       id="text5"
       transform="scale(0.77876106,1.2840909)"><tspan
         id="tspan5"
         style="stroke-width:0.588593"
         x="121.54942"
         y="126.3104">5216</tspan><tspan
         style="stroke-width:0.588593"
         x="121.54942"
         y="135.43533"
         id="tspan6" /></text><text
       xml:space="preserve"
       style="font-size:8.2063px;text-align:start;writing-mode:lr-tb;direction:ltr;text-anchor:start;fill:#fefefe;stroke:#000000;stroke-width:0.661673"
       x="55.636047"
       y="162.97853"
       id="text7"
       transform="scale(0.95660614,1.0453623)"><tspan
         id="tspan7"
         style="stroke-width:0.661673"
         x="55.636047"
         y="162.97853">5214</tspan></text><text
       xml:space="preserve"
       style="font-size:6.59094px;text-align:start;writing-mode:lr-tb;direction:ltr;text-anchor:start;fill:#fefefe;stroke:#000000;stroke-width:0.531427"
       x="86.954292"
       y="92.614922"
       id="text8"
       transform="scale(0.78452689,1.2746536)"><tspan
         id="tspan8"
         style="stroke-width:0.531427"
         x="86.954292"
         y="92.614922">5215</tspan><tspan
         style="stroke-width:0.531427"
         x="86.954292"
         y="100.8536"
         id="tspan9" /></text><text
       xml:space="preserve"
       style="font-size:3.175px;text-align:start;writing-mode:lr-tb;direction:ltr;text-anchor:start;white-space:pre;inline-size:16.9127;display:inline;fill:#fefefe;stroke:#000000;stroke-width:0.256"
       x="158.22083"
       y="24.870832"
       id="text10"
       transform="matrix(2.1281683,0,0,3.1214196,-175.76378,-44.22917)"><tspan
         x="158.22083"
         y="24.870832"
         id="tspan15">ゆめルーム</tspan></text><text
       xml:space="preserve"
       style="font-size:10.5833px;line-height:0;text-align:start;writing-mode:lr-tb;direction:ltr;text-anchor:start;fill:#000000;fill-opacity:1;stroke:#000000;stroke-width:0.262;stroke-dasharray:none"
       x="298.31573"
       y="114.16848"
       id="text11"
       transform="scale(0.7460386,1.3404132)"><tspan
         id="tspan11"
         style="font-size:10.5833px;line-height:0;fill:#000000;fill-opacity:1;stroke-width:0.262;stroke-dasharray:none"
         x="298.31573"
         y="114.16848">科学実験室</tspan><tspan
         style="font-size:10.5833px;line-height:0;fill:#000000;fill-opacity:1;stroke-width:0.262;stroke-dasharray:none"
         x="298.31573"
         y="114.16848"
         id="tspan23" /></text><text
       xml:space="preserve"
       style="font-size:10.5833px;line-height:0;text-align:start;writing-mode:lr-tb;direction:ltr;text-anchor:start;fill:#fefefe;stroke:#000000;stroke-width:0.256"
       x="0"
       y="0"
       id="text12"><tspan
         id="tspan12"
         style="stroke-width:0.256"
         x="0"
         y="0">２３</tspan></text><ellipse
       style="display:inline;fill:none;stroke:#ed5a5a;stroke-width:1.67032;stroke-dasharray:none;stroke-opacity:1"
       id="path3-1"
       cx="233.86481"
       cy="101.0146"
       rx="7.6046557"
       ry="7.0461068" /><path
       style="display:inline;fill:none;stroke:#ed5a5a;stroke-width:1.67033;stroke-dasharray:none;stroke-opacity:1"
       d="m 240.63308,96.928514 -12.39313,8.420966"
       id="path4-6" /><path
       style="display:inline;fill:none;stroke:#ed5a5a;stroke-width:1.67033;stroke-dasharray:none;stroke-opacity:1"
       d="M 240.62729,105.14868 228.60972,96.72772"
       id="path5-8" /></g></svg>
