<?xml version="1.0" encoding="UTF-8" standalone="no"?>
<!-- Created with Inkscape (http://www.inkscape.org/) -->

<svg
   width="297mm"
   height="255mm"
   viewBox="0 0 297 255"
   version="1.1"
   id="svg1"
   xml:space="preserve"
   inkscape:version="1.4.2 (f4327f4, 2025-05-13)"
   sodipodi:docname="5253.svg"
   inkscape:export-batch-path="..\Desktop\convert"
   inkscape:export-batch-name=""
   inkscape:export-filename="5253.svg"
   inkscape:export-xdpi="95.800003"
   inkscape:export-ydpi="95.800003"
   xmlns:inkscape="http://www.inkscape.org/namespaces/inkscape"
   xmlns:sodipodi="http://sodipodi.sourceforge.net/DTD/sodipodi-0.dtd"
   xmlns:xlink="http://www.w3.org/1999/xlink"
   xmlns="http://www.w3.org/2000/svg"
   xmlns:svg="http://www.w3.org/2000/svg"><sodipodi:namedview
     id="namedview1"
     pagecolor="#ffffff"
     bordercolor="#000000"
     borderopacity="0.25"
     inkscape:showpageshadow="2"
     inkscape:pageopacity="0.0"
     inkscape:pagecheckerboard="0"
     inkscape:deskcolor="#d1d1d1"
     inkscape:document-units="mm"
     inkscape:zoom="1.01"
     inkscape:cx="525.74257"
     inkscape:cy="476.73267"
     inkscape:window-width="1920"
     inkscape:window-height="991"
     inkscape:window-x="-9"
     inkscape:window-y="-9"
     inkscape:window-maximized="1"
     inkscape:current-layer="layer4"><inkscape:page
       x="0"
       y="0"
       width="297"
       height="255"
       id="page2"
       margin="0"
       bleed="0" /></sodipodi:namedview><defs
     id="defs1"><rect
       x="558"
       y="308"
       width="106"
       height="55"
       id="rect23" /><rect
       x="398"
       y="314"
       width="35"
       height="13"
       id="rect1" /></defs><g
     inkscape:groupmode="layer"
     id="layer1"
     inkscape:label="BaseMap"
     style="display:inline"
     sodipodi:insensitive="true"><path
       style="fill:#e6e6e6;stroke-width:0.264583"
       d="m 287.26904,35.849504 -17.28978,6.915912 -0.76843,12.679172 1.53686,0.384217 0.76843,0.384217 L 252.68948,231.41614 198.89905,223.34757 213.88353,95.40319 114.37124,83.108235 98.234115,230.6477 l -67.238024,-8.837 7.684346,-57.6326 9.605434,1.92109 9.605433,-90.675301 -24.974126,-3.073738 4.994826,-39.958602 50.332471,0.384217 -3.073739,17.673997 31.121594,4.610608 2.3053,-18.826649 99.12807,12.679171 3.07374,-11.526519 -4.61061,-5.76326 70.69599,0.768435 z"
       id="path34"
       inkscape:label="Base" /><path
       d="M 57.005058,93.775203 H 75.848855 V 72.553378 H 57.005058 Z m 1.018583,-20.13185 h 16.80663 v 19.041874 h -16.80663 z m 4.593814,5.621549 c 1.087336,0 1.973504,-0.948278 1.973504,-2.111827 0,-1.163549 -0.886168,-2.111828 -1.973504,-2.111828 -1.087339,0 -1.973508,0.948279 -1.973508,2.111828 0,1.163549 0.883622,2.111827 1.973508,2.111827 z m 0,-3.269926 c 0.595871,0 1.082245,0.520463 1.082245,1.158099 0,0.637635 -0.486374,1.158099 -1.082245,1.158099 -0.595872,0 -1.082246,-0.520464 -1.082246,-1.158099 0,-0.637636 0.483827,-1.158099 1.082246,-1.158099 z m 1.563524,3.951161 h -3.101586 c -0.807227,0 -1.464214,0.703034 -1.464214,1.56684 v 5.926742 h 1.028768 v 4.359903 h 3.975023 v -4.359903 h 1.02877 v -5.926742 c -0.0025,-0.863806 -0.659533,-1.56684 -1.466761,-1.56684 z m 0.572953,6.594352 h -1.028769 v 4.305404 h -2.192501 v -4.305404 h -1.02877 v -5.027512 c 0,-0.337893 0.257194,-0.613111 0.572955,-0.613111 h 3.101585 c 0.315763,0 0.572955,0.275218 0.572955,0.613111 v 5.027512 z m 5.457063,-7.275587 c 1.087337,0 1.973505,-0.948278 1.973505,-2.111827 0,-1.163549 -0.886168,-2.111828 -1.973505,-2.111828 -1.087338,0 -1.973506,0.948279 -1.973506,2.111828 0,1.163549 0.886168,2.111827 1.973506,2.111827 z m 0,-3.269926 c 0.595871,0 1.082245,0.520463 1.082245,1.158099 0,0.637635 -0.486374,1.158099 -1.082245,1.158099 -0.595872,0 -1.082246,-0.520464 -1.082246,-1.158099 0,-0.637636 0.486374,-1.158099 1.082246,-1.158099 z m 1.563525,3.951161 h -3.101587 c -0.807227,0 -1.464214,0.703034 -1.464214,1.56684 v 5.926742 h 1.02877 v 4.359903 h 3.975023 v -4.359903 h 1.028768 v -5.926742 c -0.0025,-0.863806 -0.659533,-1.56684 -1.46676,-1.56684 z m 0.572954,6.594352 h -1.02877 v 4.305404 h -2.192501 v -4.305404 h -1.028769 v -5.027512 c 0,-0.337893 0.257192,-0.613111 0.572952,-0.613111 h 3.104134 c 0.315762,0 0.572954,0.275218 0.572954,0.613111 z m 7.575716,-9.161244 v 11.537391 l 1.527874,-1.634963 v 1.542314 l -2.037167,2.179952 -2.037166,-2.179952 v -1.542314 l 1.527875,1.634963 V 77.379245 l -1.527875,1.634963 v -1.542315 l 2.037166,-2.179951 2.037167,2.179951 v 1.542315 z"
       id="path1"
       style="stroke-width:0.026342"
       inkscape:label="Elevator" /><g
       id="g1"
       transform="matrix(-0.01952375,0,0,0.02196272,232.55202,101.38336)"
       inkscape:label="Stairs"><polygon
         points="480,742 240,742 240,902 40,902 40,960 300,960 300,800 540,800 540,640 780,640 780,460 960,460 960,402 720,402 720,582 480,582 "
         id="polygon1" /><path
         d="M 165,230 A 105,105 0 1 0 60,125 105.12,105.12 0 0 0 165,230 Z m 0,-162 a 57,57 0 1 1 -57,57 57.06,57.06 0 0 1 57,-57 z"
         id="path1-4" /><path
         d="m 220.33,595.86 39.21,3.65 L 279,720 H 400 V 522.79 A 65.19,65.19 0 0 0 347.75,459.05 L 285,448.76 V 380 A 125.14,125.14 0 0 0 160,255 H 60 V 880 H 181.74 Z M 141.26,836 H 110 V 301 h 50 a 75.09,75.09 0 0 1 75,75 v 111.24 l 103.27,16.91 A 15,15 0 0 1 350,518.79 V 676 H 319 L 299.46,559.49 178.67,544.14 Z"
         id="path2" /></g><g
       id="g1-5"
       transform="matrix(0.01952375,0,0,0.02196272,79.115371,206.96387)"
       style="display:inline"
       inkscape:label="Stairs"><polygon
         points="780,640 780,460 960,460 960,402 720,402 720,582 480,582 480,742 240,742 240,902 40,902 40,960 300,960 300,800 540,800 540,640 "
         id="polygon1-5" /><path
         d="M 165,230 A 105,105 0 1 0 60,125 105.12,105.12 0 0 0 165,230 Z m 0,-162 a 57,57 0 1 1 -57,57 57.06,57.06 0 0 1 57,-57 z"
         id="path1-4-1" /><path
         d="m 220.33,595.86 39.21,3.65 L 279,720 H 400 V 522.79 A 65.19,65.19 0 0 0 347.75,459.05 L 285,448.76 V 380 A 125.14,125.14 0 0 0 160,255 H 60 V 880 H 181.74 Z M 141.26,836 H 110 V 301 h 50 a 75.09,75.09 0 0 1 75,75 v 111.24 l 103.27,16.91 A 15,15 0 0 1 350,518.79 V 676 H 319 L 299.46,559.49 178.67,544.14 Z"
         id="path2-7" /></g><ellipse
       style="display:inline;fill:none;stroke:#ed5a5a;stroke-width:1.67032;stroke-dasharray:none;stroke-opacity:1"
       id="path3"
       cx="58.369164"
       cy="45.213539"
       rx="7.6046557"
       ry="7.0461068" /><path
       style="fill:none;stroke:#ed5a5a;stroke-width:1.67033;stroke-dasharray:none;stroke-opacity:1"
       d="M 65.035161,41.633503 52.642036,50.054459"
       id="path4" /><path
       style="fill:none;stroke:#ed5a5a;stroke-width:1.67033;stroke-dasharray:none;stroke-opacity:1"
       d="M 63.935927,49.853662 51.918351,41.432706"
       id="path5" /><g
       id="g1-7"
       transform="matrix(-0.01952375,0,0,0.02196272,60.582659,32.519708)"
       style="display:inline"><polygon
         points="780,640 780,460 960,460 960,402 720,402 720,582 480,582 480,742 240,742 240,902 40,902 40,960 300,960 300,800 540,800 540,640 "
         id="polygon1-6"
         sodipodi:insensitive="true" /><path
         d="M 165,230 A 105,105 0 1 0 60,125 105.12,105.12 0 0 0 165,230 Z m 0,-162 a 57,57 0 1 1 -57,57 57.06,57.06 0 0 1 57,-57 z"
         id="path1-4-14"
         sodipodi:insensitive="true" /><path
         d="m 220.33,595.86 39.21,3.65 L 279,720 H 400 V 522.79 A 65.19,65.19 0 0 0 347.75,459.05 L 285,448.76 V 380 A 125.14,125.14 0 0 0 160,255 H 60 V 880 H 181.74 Z M 141.26,836 H 110 V 301 h 50 a 75.09,75.09 0 0 1 75,75 v 111.24 l 103.27,16.91 A 15,15 0 0 1 350,518.79 V 676 H 319 L 299.46,559.49 178.67,544.14 Z"
         id="path2-2"
         sodipodi:insensitive="true" /></g></g><g
     inkscape:groupmode="layer"
     id="layer2"
     inkscape:label="Floor1"
     style="display:inline"
     sodipodi:insensitive="true"><rect
       style="display:inline;fill:none;stroke:#000000;stroke-width:0.322803;stroke-dasharray:none;stroke-opacity:1"
       id="rect40"
       width="25.12409"
       height="38.642792"
       x="68.929764"
       y="121.18336"
       transform="rotate(7.2102665)"
       inkscape:label="room5215" /><rect
       style="fill:none;stroke:#000000;stroke-width:0.269559;stroke-dasharray:none;stroke-opacity:1"
       id="rect41"
       width="34.247494"
       height="56.43816"
       x="63.116776"
       y="158.94933"
       transform="matrix(0.99022253,0.13949672,-0.14414243,0.98955695,0,0)"
       inkscape:label="room5214" /><rect
       style="fill:none;stroke:#000000;stroke-width:0.256059;stroke-dasharray:none;stroke-opacity:1"
       id="rect42"
       width="25.742666"
       height="37.186043"
       x="94.594543"
       y="163.48749"
       transform="matrix(0.99473062,0.1025231,-0.09362505,0.99560753,0,0)"
       inkscape:label="room5216" /><rect
       style="fill:none;stroke:#000000;stroke-width:0.256059;stroke-dasharray:none;stroke-opacity:1"
       id="rect43"
       width="25.743"
       height="37.186043"
       x="96.295265"
       y="124.95972"
       transform="matrix(0.99381649,0.11103508,-0.10214486,0.99476953,0,0)"
       inkscape:label="room5217" /><rect
       style="fill:none;stroke:#000000;stroke-width:0.256059;stroke-dasharray:none;stroke-opacity:1"
       id="room5218"
       width="25.743"
       height="37.186043"
       x="95.299019"
       y="88.867172"
       transform="matrix(0.99473062,0.1025231,-0.09362505,0.99560753,0,0)" /><rect
       style="fill:none;stroke:#000000;stroke-width:0.307063;stroke-dasharray:none;stroke-opacity:1"
       id="rect44"
       width="83.281769"
       height="35.823227"
       x="132.9021"
       y="21.551216"
       transform="matrix(0.99141744,0.13073434,-0.16354992,0.98653506,0,0)"
       inkscape:label="roomYUME" /><rect
       style="fill:#ff0000;stroke:#000000;stroke-width:0.264999;stroke-dasharray:none;stroke-opacity:1"
       id="rect45"
       width="19.085226"
       height="11.398121"
       x="63.257866"
       y="105.8731"
       transform="rotate(4.4352277)"
       inkscape:label="toiletW" /><rect
       style="fill:#0000ff;stroke:#000000;stroke-width:0.264999;stroke-dasharray:none;stroke-opacity:1"
       id="rect46"
       width="19.085226"
       height="11.398121"
       x="63.257866"
       y="94.209908"
       transform="rotate(4.4352277)"
       inkscape:label="toiletM" /><rect
       style="fill:none;stroke:#000000;stroke-width:0.423691;stroke-dasharray:none;stroke-opacity:1"
       id="rect47"
       width="53.445843"
       height="89.346237"
       x="222.22908"
       y="113.82752"
       transform="matrix(0.99518102,0.09805476,-0.10148965,0.9948366,0,0)"
       inkscape:label="Science Experiment" /><rect
       style="fill:#ff0000;stroke:#000000;stroke-width:0.264999;stroke-dasharray:none;stroke-opacity:1"
       id="rect48"
       width="19.085226"
       height="11.398121"
       x="256.15082"
       y="-101.57201"
       transform="matrix(0.99519789,0.09788342,0.09788342,-0.99519789,0,0)"
       inkscape:label="toiletW" /><rect
       style="display:inline;fill:#0000ff;stroke:#000000;stroke-width:0.264999;stroke-dasharray:none;stroke-opacity:1"
       id="rect49"
       width="19.085226"
       height="11.398121"
       x="256.15082"
       y="-113.23521"
       transform="matrix(0.99519789,0.09788342,0.09788342,-0.99519789,0,0)"
       inkscape:label="toiletM" /><path
       d="m 250.10096,132.17201 c 0.0692,-0.90145 -0.67893,-1.68665 -1.66879,-1.75138 -0.98985,-0.0647 -1.85057,0.61527 -1.91981,1.51672 -0.0692,0.90145 0.67894,1.68665 1.66879,1.75138 0.98986,0.0647 1.85057,-0.61527 1.91981,-1.51672 z m -2.9905,-0.19555 c 0.0461,-0.60051 0.62047,-1.05426 1.27988,-1.01114 0.6594,0.0431 1.15865,0.56707 1.11252,1.16758 -0.0461,0.60051 -0.62047,1.05426 -1.27987,1.01114 -0.65941,-0.0431 -1.15865,-0.56706 -1.11253,-1.16758 z m 3.39415,-1.1466 -0.20919,2.72341 c -0.0692,0.90145 0.67894,1.68665 1.66879,1.75138 l 4.78481,0.31287 0.0837,-1.08936 4.48575,0.29332 0.29286,-3.81277 -4.48576,-0.29333 0.0837,-1.08936 -4.7848,-0.31288 c -0.98985,-0.0647 -1.85057,0.61527 -1.91981,1.51672 z m 6.09458,-0.69631 -0.0418,0.54468 -3.91756,-0.25617 -0.0418,0.54468 8.40331,0.54949 -0.0837,1.08937 -4.51566,-0.29528 -0.0418,0.54468 4.51565,0.29528 -0.0837,1.08936 -8.40331,-0.54949 -0.0418,0.54469 3.91756,0.25616 -0.0418,0.54469 -4.21661,-0.27573 c -0.6594,-0.0431 -1.15865,-0.56707 -1.11252,-1.16758 l 0.20918,-2.72341 c 0.0461,-0.60051 0.62047,-1.05427 1.27988,-1.01115 z"
       id="path1-1-1"
       style="stroke-width:0.0143049"
       inkscape:label="toiletM" /><path
       d="m 60.71401,105.24884 c 0.06924,-0.90145 -0.678934,-1.68665 -1.66879,-1.75137 -0.989856,-0.0647 -1.850572,0.61527 -1.919812,1.51671 -0.06924,0.90145 0.678934,1.68666 1.66879,1.75138 0.989856,0.0647 1.850572,-0.61527 1.919812,-1.51672 z m -2.990501,-0.19555 c 0.04613,-0.60051 0.620468,-1.05426 1.279874,-1.01114 0.659405,0.0431 1.158651,0.56707 1.112526,1.16758 -0.04613,0.60052 -0.620469,1.05427 -1.279874,1.01115 -0.659406,-0.0431 -1.158652,-0.56707 -1.112526,-1.16759 z m 3.394144,-1.1466 -0.209185,2.72341 c -0.06924,0.90145 0.678935,1.68665 1.668791,1.75138 l 4.784803,0.31288 0.08367,-1.08937 4.485753,0.29333 0.29286,-3.81278 -4.485754,-0.29333 0.08367,-1.08936 -4.784803,-0.31288 c -0.989856,-0.0647 -1.850572,0.61527 -1.919813,1.51672 z m 6.094585,-0.69631 -0.04184,0.54468 -3.917559,-0.25617 -0.04184,0.54468 8.403312,0.5495 -0.08367,1.08936 -4.515659,-0.29528 -0.04183,0.54469 4.515658,0.29527 -0.08367,1.08937 -8.403312,-0.54949 -0.04184,0.54468 3.917559,0.25617 -0.04184,0.54468 -4.216609,-0.27572 c -0.659405,-0.0431 -1.158651,-0.56707 -1.112526,-1.16759 l 0.209185,-2.72341 c 0.04613,-0.60051 0.620469,-1.05426 1.279875,-1.01115 z"
       id="path1-1"
       style="stroke-width:0.0143049"
       inkscape:label="toiletM" /><path
       d="m 59.978265,116.87004 c 0.06615,-0.76834 -0.722443,-1.44428 -1.758941,-1.50768 -1.036495,-0.0634 -1.932604,0.5095 -1.998753,1.27783 -0.06615,0.76834 0.722443,1.44428 1.758939,1.50768 1.036498,0.0634 1.932606,-0.5095 1.998755,-1.27783 z m -3.131411,-0.19154 c 0.04407,-0.51183 0.642026,-0.89412 1.332501,-0.85188 0.690476,0.0422 1.216693,0.49327 1.172627,1.00511 -0.04407,0.51184 -0.642027,0.89412 -1.332503,0.85189 -0.690476,-0.0422 -1.216691,-0.49328 -1.172625,-1.00512 z m 9.598274,-1.79539 0.09483,-1.10143 -4.858232,1.05392 c -0.365674,0.0791 -0.684609,0.23698 -0.92086,0.45821 -0.236153,0.22007 -0.373931,0.48582 -0.398312,0.76901 l -0.142291,1.65273 c -0.02438,0.2832 0.06644,0.56294 0.262417,0.80944 0.195983,0.2465 0.484542,0.44149 0.83273,0.56546 l 4.626811,1.63409 0.09483,-1.10144 1.834381,0.6314 0.128601,-1.49372 3.757692,0.22984 0.239815,-2.7855 -3.757693,-0.22984 0.128601,-1.49373 z m 1.128461,1.51811 3.789007,0.23176 -0.05995,0.69637 -3.789007,-0.23175 -0.03997,0.46425 3.789007,0.23175 -0.05995,0.69638 -3.789007,-0.23176 -0.111215,1.29178 -5.200192,-1.75666 -0.03958,0.4596 3.393529,1.16896 -0.05286,0.61397 -3.826732,-1.3658 c -0.470445,-0.16645 -0.763002,-0.53436 -0.730127,-0.91621 l 0.142189,-1.65157 c 0.03288,-0.38184 0.387051,-0.71137 0.879416,-0.81776 l 4.020582,-0.88581 -0.05286,0.61397 -3.558201,0.74375 -0.03957,0.45961 5.446602,-1.10545 z"
       id="path1-8"
       style="stroke-width:0.0135158"
       inkscape:label="toiletW" /><use
       x="0"
       y="0"
       xlink:href="#path1-8"
       id="use56"
       transform="translate(191.17077,4.0991787)"
       inkscape:label="toiletW" /><text
       xml:space="preserve"
       transform="scale(0.26458333)"
       id="text1"
       style="text-align:start;writing-mode:lr-tb;direction:ltr;white-space:pre;shape-inside:url(#rect1);display:inline;fill:#fefefe;stroke:#000000;stroke-width:0.967559"><tspan
         x="398"
         y="337.94796"
         id="tspan34"><tspan
           dx="0 7.6289062 7.6289062 7.6289062"
           id="tspan33">5214</tspan></tspan></text><text
       xml:space="preserve"
       style="font-size:7.55566px;text-align:start;writing-mode:lr-tb;direction:ltr;text-anchor:start;fill:#fefefe;stroke:#000000;stroke-width:0.609213"
       x="115.01283"
       y="97.075447"
       id="text2"
       transform="scale(0.78128663,1.27994)"><tspan
         sodipodi:role="line"
         id="tspan2"
         style="stroke-width:0.609213"
         x="115.01283"
         y="97.075447">5218</tspan><tspan
         sodipodi:role="line"
         style="stroke-width:0.609213"
         x="115.01283"
         y="106.52002"
         id="tspan3" /></text><text
       xml:space="preserve"
       style="font-size:6.83968px;text-align:start;writing-mode:lr-tb;direction:ltr;text-anchor:start;fill:#fefefe;stroke:#000000;stroke-width:0.551483"
       x="116.44863"
       y="120.22421"
       id="text4"
       transform="scale(0.75381468,1.326586)"><tspan
         sodipodi:role="line"
         id="tspan4"
         style="stroke-width:0.551483"
         x="116.44863"
         y="120.22421">5217</tspan></text><text
       xml:space="preserve"
       style="font-size:7.29994px;text-align:start;writing-mode:lr-tb;direction:ltr;text-anchor:start;fill:#fefefe;stroke:#000000;stroke-width:0.588593"
       x="107.2442"
       y="151.79518"
       id="text5"
       transform="scale(0.77876106,1.2840909)"><tspan
         sodipodi:role="line"
         id="tspan5"
         style="stroke-width:0.588593"
         x="107.2442"
         y="151.79518">5216</tspan><tspan
         sodipodi:role="line"
         style="stroke-width:0.588593"
         x="107.2442"
         y="160.9201"
         id="tspan6" /></text><text
       xml:space="preserve"
       style="font-size:8.2063px;text-align:start;writing-mode:lr-tb;direction:ltr;text-anchor:start;fill:#fefefe;stroke:#000000;stroke-width:0.661673"
       x="43.990345"
       y="194.28326"
       id="text7"
       transform="scale(0.95660614,1.0453623)"><tspan
         sodipodi:role="line"
         id="tspan7"
         style="stroke-width:0.661673"
         x="43.990345"
         y="194.28326">5214</tspan></text><text
       xml:space="preserve"
       style="font-size:6.59094px;text-align:start;writing-mode:lr-tb;direction:ltr;text-anchor:start;fill:#fefefe;stroke:#000000;stroke-width:0.531427"
       x="72.754204"
       y="118.28839"
       id="text8"
       transform="scale(0.78452688,1.2746536)"><tspan
         sodipodi:role="line"
         id="tspan8"
         style="stroke-width:0.531427"
         x="72.754204"
         y="118.28839">5215</tspan><tspan
         sodipodi:role="line"
         style="stroke-width:0.531427"
         x="72.754204"
         y="126.52707"
         id="tspan9" /></text><text
       xml:space="preserve"
       style="font-size:3.175px;text-align:start;writing-mode:lr-tb;direction:ltr;text-anchor:start;white-space:pre;inline-size:16.9127;display:inline;fill:#fefefe;stroke:#000000;stroke-width:0.256"
       x="158.22083"
       y="24.870832"
       id="text10"
       transform="matrix(2.1281683,0,0,3.1214196,-186.90413,-11.504389)"><tspan
         x="158.22083"
         y="24.870832"
         id="tspan35">ゆめルーム</tspan></text><text
       xml:space="preserve"
       style="font-size:10.5833px;line-height:0;text-align:start;writing-mode:lr-tb;direction:ltr;text-anchor:start;fill:#000000;fill-opacity:1;stroke:#000000;stroke-width:0.262;stroke-dasharray:none"
       x="283.38306"
       y="138.58243"
       id="text11"
       transform="scale(0.7460386,1.3404132)"><tspan
         sodipodi:role="line"
         id="tspan11"
         style="font-size:10.5833px;line-height:0;fill:#000000;fill-opacity:1;stroke-width:0.262;stroke-dasharray:none"
         x="283.38306"
         y="138.58243">科学実験室</tspan><tspan
         sodipodi:role="line"
         style="font-size:10.5833px;line-height:0;fill:#000000;fill-opacity:1;stroke-width:0.262;stroke-dasharray:none"
         x="283.38306"
         y="138.58243"
         id="tspan23" /></text><ellipse
       style="display:inline;fill:none;stroke:#ed5a5a;stroke-width:1.67032;stroke-dasharray:none;stroke-opacity:1"
       id="path3-1"
       cx="222.72446"
       cy="133.73938"
       rx="7.6046557"
       ry="7.0461068" /><path
       style="display:inline;fill:none;stroke:#ed5a5a;stroke-width:1.67033;stroke-dasharray:none;stroke-opacity:1"
       d="m 229.49273,129.65329 -12.39313,8.42097"
       id="path4-6" /><path
       style="display:inline;fill:none;stroke:#ed5a5a;stroke-width:1.67033;stroke-dasharray:none;stroke-opacity:1"
       d="M 229.48694,137.87346 217.46937,129.4525"
       id="path5-8" /></g><g
     inkscape:groupmode="layer"
     id="layer3"
     inkscape:label="Floor2"
     style="display:inline"
     sodipodi:insensitive="true"><rect
       style="display:inline;fill:none;stroke:#000000;stroke-width:0.322803;stroke-dasharray:none;stroke-opacity:1"
       id="rect6"
       width="25.12409"
       height="38.642792"
       x="68.151611"
       y="120.57999"
       transform="rotate(7.2102665)"
       inkscape:label="room5225" /><rect
       style="display:inline;fill:#0000ff;stroke:#000000;stroke-width:0.264999;stroke-dasharray:none;stroke-opacity:1"
       id="rect12"
       width="19.085226"
       height="11.398121"
       x="62.509834"
       y="93.569565"
       transform="rotate(4.4352277)"
       inkscape:label="toiletM" /><rect
       style="display:inline;fill:#ff0000;stroke:#000000;stroke-width:0.264999;stroke-dasharray:none;stroke-opacity:1"
       id="rect11"
       width="19.085226"
       height="11.398121"
       x="62.509834"
       y="105.23276"
       transform="rotate(4.4352277)"
       inkscape:label="toiletW" /><path
       d="m 59.281993,116.17376 c 0.06615,-0.76833 -0.722443,-1.44427 -1.758941,-1.50767 -1.036495,-0.0634 -1.932604,0.5095 -1.998753,1.27783 -0.06615,0.76834 0.722443,1.44428 1.758939,1.50767 1.036498,0.0634 1.932606,-0.50949 1.998755,-1.27783 z m -3.131411,-0.19153 c 0.04407,-0.51184 0.642026,-0.89412 1.332501,-0.85189 0.690476,0.0422 1.216693,0.49328 1.172627,1.00512 -0.04407,0.51183 -0.642027,0.89412 -1.332503,0.85188 -0.690476,-0.0422 -1.216691,-0.49328 -1.172625,-1.00511 z m 9.598274,-1.79539 0.09483,-1.10144 -4.858232,1.05393 c -0.365674,0.0791 -0.684609,0.23697 -0.92086,0.4582 -0.236153,0.22007 -0.373931,0.48583 -0.398312,0.76902 l -0.142291,1.65273 c -0.02438,0.2832 0.06644,0.56293 0.262417,0.80944 0.195983,0.2465 0.484542,0.44149 0.83273,0.56546 l 4.626811,1.63408 0.09483,-1.10143 1.834381,0.6314 0.128601,-1.49372 3.757692,0.22984 0.239815,-2.7855 -3.757693,-0.22985 0.128601,-1.49372 z m 1.128461,1.51811 3.789007,0.23176 -0.05995,0.69637 -3.789007,-0.23176 -0.03997,0.46425 3.789007,0.23176 -0.05995,0.69637 -3.789007,-0.23175 -0.111215,1.29177 -5.200192,-1.75666 -0.03958,0.45961 3.393529,1.16896 -0.05286,0.61397 -3.826732,-1.3658 c -0.470445,-0.16645 -0.763002,-0.53436 -0.730127,-0.91621 l 0.142189,-1.65157 c 0.03288,-0.38185 0.387051,-0.71137 0.879416,-0.81776 l 4.020582,-0.88582 -0.05286,0.61397 -3.558201,0.74376 -0.03957,0.4596 5.446602,-1.10544 z"
       id="path13"
       style="display:inline;stroke-width:0.0135158"
       inkscape:label="toiletW" /><path
       d="m 60.017738,104.55257 c 0.06924,-0.90145 -0.678934,-1.68665 -1.66879,-1.75138 -0.989856,-0.0647 -1.850572,0.61527 -1.919812,1.51672 -0.06924,0.90145 0.678934,1.68665 1.66879,1.75138 0.989856,0.0647 1.850572,-0.61527 1.919812,-1.51672 z m -2.990501,-0.19555 c 0.04613,-0.60051 0.620468,-1.05426 1.279874,-1.01114 0.659405,0.0431 1.158651,0.56707 1.112526,1.16758 -0.04613,0.60051 -0.620469,1.05427 -1.279874,1.01115 -0.659406,-0.0431 -1.158652,-0.56707 -1.112526,-1.16759 z m 3.394144,-1.1466 -0.209185,2.72341 c -0.06924,0.90145 0.678935,1.68665 1.668791,1.75138 l 4.784803,0.31288 0.08367,-1.08937 4.485753,0.29332 0.29286,-3.81277 -4.485754,-0.29333 0.08367,-1.08936 -4.784803,-0.31288 c -0.989856,-0.0647 -1.850572,0.61527 -1.919813,1.51672 z m 6.094585,-0.69631 -0.04184,0.54468 -3.917559,-0.25617 -0.04184,0.54468 8.403312,0.54949 -0.08367,1.08937 -4.515659,-0.29528 -0.04183,0.54468 4.515658,0.29528 -0.08367,1.08937 -8.403312,-0.54949 -0.04184,0.54468 3.917559,0.25617 -0.04184,0.54468 -4.216609,-0.27572 c -0.659405,-0.0431 -1.158651,-0.56708 -1.112526,-1.16759 l 0.209185,-2.72341 c 0.04613,-0.60051 0.620469,-1.05427 1.279875,-1.01115 z"
       id="path12"
       style="display:inline;stroke-width:0.0143049"
       inkscape:label="toiletM" /><rect
       style="display:inline;fill:none;stroke:#000000;stroke-width:0.269559;stroke-dasharray:none;stroke-opacity:1"
       id="rect7"
       width="34.247494"
       height="56.43816"
       x="62.327404"
       y="158.35698"
       transform="matrix(0.99022253,0.13949672,-0.14414243,0.98955695,0,0)"
       inkscape:label="room5224" /><rect
       style="display:inline;fill:none;stroke:#000000;stroke-width:0.423691;stroke-dasharray:none;stroke-opacity:1"
       id="rect5"
       width="53.445843"
       height="89.346237"
       x="221.46573"
       y="113.20287"
       transform="matrix(0.99518102,0.09805476,-0.10148965,0.9948366,0,0)"
       inkscape:label="Physical Experiment" /><rect
       style="fill:none;stroke:#000000;stroke-width:0.237736;stroke-dasharray:none;stroke-opacity:1"
       id="rect13"
       width="46.010616"
       height="29.032822"
       x="121.70112"
       y="20.923824"
       transform="matrix(0.99088008,0.13474664,-0.10027397,0.99495986,0,0)"
       inkscape:label="room5223" /><rect
       style="display:inline;fill:none;stroke:#000000;stroke-width:0.256842;stroke-dasharray:none;stroke-opacity:1"
       id="rect13-6"
       width="53.637047"
       height="29.068729"
       x="168.18646"
       y="24.432865"
       transform="matrix(0.99330546,0.11551741,-0.11703613,0.99312766,0,0)"
       inkscape:label="room5222" /><rect
       style="display:inline;fill:none;stroke:#000000;stroke-width:0.256;stroke-dasharray:none;stroke-opacity:1"
       id="rect13-60"
       width="53.289318"
       height="29.0669"
       x="222.13658"
       y="23.989311"
       transform="rotate(6.6771334)"
       inkscape:label="room5221" /><rect
       style="fill:#e6e6e6;stroke:#000000;stroke-width:0.234001;stroke-dasharray:none;stroke-opacity:1"
       id="rect14"
       width="21.431311"
       height="25.239794"
       x="35.159134"
       y="71.965584"
       ry="0"
       inkscape:label="restroom" /><rect
       style="display:inline;fill:none;stroke:#000000;stroke-width:0.234005"
       id="rect15-5"
       width="30.321886"
       height="27.421253"
       x="100.46392"
       y="-121.56996"
       transform="matrix(-0.10161483,0.99482382,-0.99530254,-0.09681353,0,0)" /><rect
       style="display:inline;fill:none;stroke:#000000;stroke-width:0.234005"
       id="rect16-1"
       width="30.321886"
       height="27.421253"
       x="131.01703"
       y="-121.56996"
       transform="matrix(-0.10161483,0.99482382,-0.99530254,-0.09681353,0,0)" /><rect
       style="display:inline;fill:none;stroke:#000000;stroke-width:0.234005"
       id="rect17-7"
       width="30.321886"
       height="27.421253"
       x="161.57013"
       y="-121.56996"
       transform="matrix(-0.10161483,0.99482382,-0.99530254,-0.09681353,0,0)" /><text
       xml:space="preserve"
       style="font-size:10.5833px;line-height:0;text-align:start;writing-mode:lr-tb;direction:ltr;text-anchor:start;fill:#000000;fill-opacity:1;stroke:#000000;stroke-width:0.256"
       x="38.698792"
       y="203.74309"
       id="text14"><tspan
         sodipodi:role="line"
         id="tspan14"
         style="fill:#000000;fill-opacity:1;stroke-width:0.256"
         x="38.698792"
         y="203.74309">5224</tspan></text><text
       xml:space="preserve"
       style="font-size:9.51785px;line-height:0;text-align:start;writing-mode:lr-tb;direction:ltr;text-anchor:start;fill:#000000;fill-opacity:1;stroke:#000000;stroke-width:0.230228"
       x="59.757355"
       y="132.05447"
       id="text13"
       transform="scale(0.86788634,1.1522246)"><tspan
         sodipodi:role="line"
         id="tspan13"
         style="fill:#000000;fill-opacity:1;stroke-width:0.230228"
         x="59.757355"
         y="132.05447">5225</tspan></text><text
       xml:space="preserve"
       style="font-size:9.91265px;line-height:0;text-align:start;writing-mode:lr-tb;direction:ltr;text-anchor:start;fill:#000000;fill-opacity:1;stroke:#000000;stroke-width:0.239778"
       x="82.563705"
       y="183.28181"
       id="text15"
       transform="scale(0.93473957,1.0698167)"><tspan
         sodipodi:role="line"
         id="tspan15"
         style="stroke-width:0.239778"
         x="82.563705"
         y="183.28181">5226</tspan></text><text
       xml:space="preserve"
       style="font-size:10.3443px;line-height:0;text-align:start;writing-mode:lr-tb;direction:ltr;text-anchor:start;fill:#000000;fill-opacity:1;stroke:#000000;stroke-width:0.250218"
       x="88.256042"
       y="145.46205"
       id="text16"
       transform="scale(0.916261,1.0913921)"><tspan
         sodipodi:role="line"
         id="tspan16"
         style="stroke-width:0.250218"
         x="88.256042"
         y="145.46205">5227</tspan></text><text
       xml:space="preserve"
       style="font-size:10.3596px;line-height:0;text-align:start;writing-mode:lr-tb;direction:ltr;text-anchor:start;fill:#000000;fill-opacity:1;stroke:#000000;stroke-width:0.250588"
       x="87.654495"
       y="122.24476"
       id="text17"
       transform="scale(0.94707813,1.0558791)"><tspan
         sodipodi:role="line"
         id="tspan17"
         style="stroke-width:0.250588"
         x="87.654495"
         y="122.24476">5228</tspan></text><text
       xml:space="preserve"
       style="font-size:10.5833px;line-height:0;text-align:start;writing-mode:lr-tb;direction:ltr;text-anchor:start;fill:#000000;fill-opacity:1;stroke:#000000;stroke-width:0.256"
       x="125.7467"
       y="59.280586"
       id="text18"><tspan
         sodipodi:role="line"
         id="tspan18"
         style="stroke-width:0.256"
         x="125.7467"
         y="59.280586">5223</tspan></text><text
       xml:space="preserve"
       style="font-size:10.5833px;line-height:0;text-align:start;writing-mode:lr-tb;direction:ltr;text-anchor:start;fill:#000000;fill-opacity:1;stroke:#000000;stroke-width:0.256"
       x="174.43004"
       y="65.895172"
       id="text19"><tspan
         sodipodi:role="line"
         id="tspan19"
         style="stroke-width:0.256"
         x="174.43004"
         y="65.895172">5222</tspan></text><text
       xml:space="preserve"
       style="font-size:10.5833px;line-height:0;text-align:start;writing-mode:lr-tb;direction:ltr;text-anchor:start;fill:#000000;fill-opacity:1;stroke:#000000;stroke-width:0.256"
       x="230.25713"
       y="72.509758"
       id="text20"><tspan
         sodipodi:role="line"
         id="tspan20"
         style="stroke-width:0.256"
         x="230.25713"
         y="72.509758">5221</tspan></text><text
       xml:space="preserve"
       style="font-size:10.5833px;line-height:0;text-align:start;writing-mode:lr-tb;direction:ltr;text-anchor:start;fill:#000000;fill-opacity:1;stroke:#000000;stroke-width:0.256"
       x="204.59253"
       y="189.72017"
       id="text21"><tspan
         sodipodi:role="line"
         id="tspan21"
         style="stroke-width:0.256"
         x="204.59253"
         y="189.72017">物理実験室</tspan><tspan
         sodipodi:role="line"
         style="stroke-width:0.256"
         x="204.59253"
         y="189.72017"
         id="tspan22" /></text><ellipse
       style="display:inline;fill:none;stroke:#ed5a5a;stroke-width:1.67032;stroke-dasharray:none;stroke-opacity:1"
       id="path3-1-1"
       cx="220.96986"
       cy="134.6306"
       rx="7.6046557"
       ry="7.0461068" /><path
       style="display:inline;fill:none;stroke:#ed5a5a;stroke-width:1.67033;stroke-dasharray:none;stroke-opacity:1"
       d="m 227.73814,130.54452 -12.39313,8.42097"
       id="path4-6-5" /><path
       style="display:inline;fill:none;stroke:#ed5a5a;stroke-width:1.67033;stroke-dasharray:none;stroke-opacity:1"
       d="m 227.73235,138.76469 -12.01757,-8.42096"
       id="path5-8-2" /></g><g
     inkscape:groupmode="layer"
     id="layer4"
     inkscape:label="Floor3"
     style="display:inline"
     sodipodi:insensitive="true"><use
       x="0"
       y="0"
       xlink:href="#rect12"
       id="use15"
       style="display:inline"
       transform="translate(0.68976842,0.1914189)"
       inkscape:label="toiletM" /><use
       x="0"
       y="0"
       xlink:href="#rect11"
       id="use16"
       style="display:inline"
       transform="translate(0.68976842,0.1914189)"
       inkscape:label="toiletW" /><use
       x="0"
       y="0"
       xlink:href="#path13"
       id="use17"
       style="display:inline"
       transform="translate(0.68976842,0.1914189)"
       inkscape:label="toiletW" /><use
       x="0"
       y="0"
       xlink:href="#path12"
       id="use18"
       style="display:inline"
       transform="translate(0.68976842,0.1914189)"
       inkscape:label="toiletM" /><use
       x="0"
       y="0"
       xlink:href="#rect14"
       id="use27"
       style="display:inline"
       transform="translate(0.25546035,0.44993577)"
       inkscape:label="temporary restroom" /><rect
       style="fill:#fefefe;fill-opacity:1;stroke:#000000;stroke-width:0.256;stroke-dasharray:none;stroke-opacity:1"
       id="rect27"
       width="72.075996"
       height="114.95689"
       x="211.15034"
       y="100.02237"
       transform="rotate(5.738345)"
       inkscape:label="blank" /><rect
       style="display:inline;fill:none;stroke:#000000;stroke-width:0.264963"
       id="5233"
       width="38.087002"
       height="31.689428"
       x="122.93941"
       y="22.178249"
       transform="matrix(0.99269299,0.1206674,-0.12616213,0.99200965,0,0)" /><rect
       style="display:inline;fill:none;stroke:#000000;stroke-width:0.264963"
       id="Geographycal_room"
       width="38.087002"
       height="31.689428"
       x="238.00406"
       y="22.178249"
       transform="matrix(0.99269299,0.1206674,-0.12616213,0.99200965,0,0)" /><rect
       style="display:inline;fill:none;stroke:#000000;stroke-width:0.264963"
       id="room5232"
       width="38.087002"
       height="31.689428"
       x="161.2943"
       y="22.178249"
       transform="matrix(0.99269299,0.1206674,-0.12616213,0.99200965,0,0)" /><rect
       style="display:inline;fill:none;stroke:#000000;stroke-width:0.264963"
       id="room5231"
       width="38.087002"
       height="31.689428"
       x="199.64919"
       y="22.178249"
       transform="matrix(0.99269299,0.1206674,-0.12616213,0.99200965,0,0)" /><use
       x="0"
       y="0"
       xlink:href="#rect18"
       id="use19"
       transform="matrix(0.74132448,0,0,0.79023149,23.533798,-2.4465059)"
       style="display:inline;fill:none" /><text
       xml:space="preserve"
       style="font-size:10.5833px;line-height:0;text-align:start;writing-mode:lr-tb;direction:ltr;text-anchor:start;fill:#000000;fill-opacity:1;stroke:#000000;stroke-width:0.262;stroke-dasharray:none"
       x="159.57121"
       y="62.343895"
       id="text25"><tspan
         sodipodi:role="line"
         id="tspan25"
         style="stroke-width:0.262"
         x="159.57121"
         y="62.343895">5232</tspan></text><text
       xml:space="preserve"
       style="font-size:10.5833px;line-height:0;text-align:start;writing-mode:lr-tb;direction:ltr;text-anchor:start;fill:#000000;fill-opacity:1;stroke:#000000;stroke-width:0.262;stroke-dasharray:none"
       x="121.82166"
       y="57.718651"
       id="text26"><tspan
         sodipodi:role="line"
         id="tspan26"
         style="stroke-width:0.262"
         x="121.82166"
         y="57.718651">5233</tspan></text><text
       xml:space="preserve"
       transform="matrix(0.26458333,0,0,0.26458333,53.396458,-18.110513)"
       id="text23"
       style="font-size:40px;line-height:0;text-align:start;writing-mode:lr-tb;direction:ltr;white-space:pre;shape-inside:url(#rect23);display:inline;fill:#000000;fill-opacity:1;stroke:#000000;stroke-width:0.990236;stroke-dasharray:none"><tspan
         x="558"
         y="319.49321"
         id="tspan36">5231</tspan></text><text
       xml:space="preserve"
       style="font-size:7.9961px;line-height:0;text-align:start;writing-mode:lr-tb;direction:ltr;text-anchor:start;fill:#000000;fill-opacity:1;stroke:#000000;stroke-width:0.197951;stroke-dasharray:none"
       x="291.79623"
       y="57.148342"
       id="text32"
       transform="scale(0.80885731,1.236312)"><tspan
         sodipodi:role="line"
         id="tspan32"
         style="stroke-width:0.197951"
         x="291.79623"
         y="57.148342">地学実験室</tspan></text><rect
       style="fill:none;stroke:#000000;stroke-width:0.214674"
       id="rect15"
       width="33.579514"
       height="20.839178"
       x="79.891235"
       y="-123.69421"
       transform="matrix(-0.11300506,0.99359441,-0.98225612,-0.18754442,0,0)" /><rect
       style="display:inline;fill:none;stroke:#000000;stroke-width:0.214674"
       id="rect16"
       width="33.579514"
       height="20.839178"
       x="113.72681"
       y="-123.69421"
       transform="matrix(-0.11300506,0.99359442,-0.98225613,-0.18754442,0,0)" /><rect
       style="fill:none;stroke:#000000;stroke-width:0.214674"
       id="rect17"
       width="33.579514"
       height="20.839178"
       x="147.56236"
       y="-123.69421"
       transform="matrix(-0.11300506,0.99359441,-0.98225612,-0.18754442,0,0)" /><rect
       style="fill:none;stroke:#000000;stroke-width:0.297305"
       id="rect18"
       width="29.409634"
       height="48.82024"
       x="64.746422"
       y="155.05824"
       transform="matrix(0.98280956,0.18462223,-0.15487903,0.98793344,0,0)" /><text
       xml:space="preserve"
       style="font-size:8.11879px;line-height:0;text-align:start;writing-mode:lr-tb;direction:ltr;text-anchor:start;display:inline;fill:#000000;fill-opacity:1;stroke:#000000;stroke-width:0.200989;stroke-dasharray:none"
       x="46.454216"
       y="168.93013"
       id="text27"
       transform="scale(0.86827738,1.1517057)"><tspan
         sodipodi:role="line"
         id="tspan27"
         style="stroke-width:0.200989"
         x="46.454216"
         y="168.93013">5234</tspan></text><text
       xml:space="preserve"
       style="font-size:8.5714px;line-height:0;text-align:start;writing-mode:lr-tb;direction:ltr;text-anchor:start;display:inline;fill:#000000;fill-opacity:1;stroke:#000000;stroke-width:0.212193;stroke-dasharray:none"
       x="52.413624"
       y="144.30939"
       id="text28"
       transform="scale(0.94471686,1.0585182)"><tspan
         sodipodi:role="line"
         id="tspan28"
         style="stroke-width:0.212193"
         x="52.413624"
         y="144.30939">5235</tspan></text><text
       xml:space="preserve"
       style="font-size:9.0848px;line-height:0;text-align:start;writing-mode:lr-tb;direction:ltr;text-anchor:start;display:inline;fill:#000000;fill-opacity:1;stroke:#000000;stroke-width:0.224903;stroke-dasharray:none"
       x="94.802956"
       y="163.82198"
       id="text29"
       transform="scale(0.86861806,1.151254)"><tspan
         sodipodi:role="line"
         id="tspan29"
         style="stroke-width:0.224903"
         x="94.802956"
         y="163.82198">5236</tspan></text><text
       xml:space="preserve"
       style="font-size:7.75986px;line-height:0;text-align:start;writing-mode:lr-tb;direction:ltr;text-anchor:start;display:inline;fill:#000000;fill-opacity:1;stroke:#000000;stroke-width:0.192103;stroke-dasharray:none"
       x="102.61755"
       y="133.88249"
       id="text30"
       transform="scale(0.85278134,1.1726335)"><tspan
         sodipodi:role="line"
         id="tspan30"
         style="stroke-width:0.192103"
         x="102.61755"
         y="133.88249">5237</tspan></text><text
       xml:space="preserve"
       style="font-size:7.11674px;line-height:0;text-align:start;writing-mode:lr-tb;direction:ltr;text-anchor:start;display:inline;fill:#000000;fill-opacity:1;stroke:#000000;stroke-width:0.176182;stroke-dasharray:none"
       x="117.30524"
       y="98.12957"
       id="text31"
       transform="scale(0.78749512,1.2698491)"><tspan
         sodipodi:role="line"
         id="tspan31"
         style="stroke-width:0.176182"
         x="117.30524"
         y="98.12957">5238</tspan></text></g></svg>
