<?xml version="1.0" encoding="UTF-8" standalone="no"?>
<!-- Created with Inkscape (http://www.inkscape.org/) -->

<svg
   width="240.20677mm"
   height="197.9924mm"
   viewBox="0 0 240.20677 197.9924"
   version="1.1"
   id="svg1"
   xml:space="preserve"
   xmlns:xlink="http://www.w3.org/1999/xlink"
   xmlns="http://www.w3.org/2000/svg"
   xmlns:svg="http://www.w3.org/2000/svg"><defs
     id="defs1"><rect
       x="558"
       y="308"
       width="106"
       height="55"
       id="rect23" /></defs><g
     id="layer3"
     style="display:none"
     transform="translate(-42.696099,-5.7252132)"><rect
       style="display:inline;fill:none;stroke:#000000;stroke-width:0.322803;stroke-dasharray:none;stroke-opacity:1"
       id="rect6"
       width="25.12409"
       height="38.642792"
       x="75.874702"
       y="87.31913"
       transform="rotate(7.2102665)" /><rect
       style="display:inline;fill:#0000ff;stroke:#000000;stroke-width:0.264999;stroke-dasharray:none;stroke-opacity:1"
       id="rect12"
       width="19.085226"
       height="11.398121"
       x="71.834183"
       y="60.721615"
       transform="rotate(4.4352277)" /><rect
       style="display:inline;fill:#ff0000;stroke:#000000;stroke-width:0.264999;stroke-dasharray:none;stroke-opacity:1"
       id="rect11"
       width="19.085226"
       height="11.398121"
       x="71.834183"
       y="72.384811"
       transform="rotate(4.4352277)" /><path
       d="m 71.118616,84.145256 c 0.06615,-0.768334 -0.722443,-1.444274 -1.758941,-1.507673 -1.036495,-0.0634 -1.932604,0.509497 -1.998753,1.27783 -0.06615,0.768334 0.722443,1.444274 1.758939,1.507672 1.036498,0.0634 1.932606,-0.509495 1.998755,-1.277829 z m -3.131411,-0.191535 c 0.04407,-0.511836 0.642026,-0.89412 1.332501,-0.851886 0.690476,0.04223 1.216693,0.493278 1.172627,1.005113 -0.04407,0.511837 -0.642027,0.89412 -1.332503,0.851887 -0.690476,-0.04223 -1.216691,-0.493279 -1.172625,-1.005114 z m 9.598274,-1.795392 0.09483,-1.101434 -4.858232,1.053925 c -0.365674,0.07914 -0.684609,0.236975 -0.92086,0.458205 -0.236153,0.22007 -0.373931,0.485826 -0.398312,0.769019 l -0.142291,1.65273 c -0.02438,0.283193 0.06644,0.562931 0.262417,0.809433 0.195983,0.246501 0.484542,0.441495 0.83273,0.565465 l 4.626811,1.634084 0.09483,-1.101433 1.834381,0.631399 0.128601,-1.493725 3.757692,0.229841 0.239815,-2.7855 -3.757693,-0.229842 0.128601,-1.493725 z m 1.128461,1.51811 3.789007,0.231758 -0.05995,0.696375 -3.789007,-0.231757 -0.03997,0.46425 3.789007,0.231757 -0.05995,0.696374 -3.789007,-0.231756 -0.111215,1.291776 -5.200192,-1.756661 -0.03958,0.459608 3.393529,1.168959 -0.05286,0.61397 -3.826732,-1.365799 c -0.470445,-0.16645 -0.763002,-0.534366 -0.730127,-0.916212 l 0.142189,-1.651569 c 0.03288,-0.381846 0.387051,-0.71137 0.879416,-0.817764 l 4.020582,-0.885813 -0.05286,0.613971 -3.558201,0.743752 -0.03957,0.459607 5.446602,-1.105441 z"
       id="path13"
       style="display:inline;stroke-width:0.0135158" /><path
       d="m 71.854361,72.524062 c 0.06924,-0.901449 -0.678934,-1.686651 -1.66879,-1.751377 -0.989856,-0.06473 -1.850572,0.61527 -1.919812,1.516719 -0.06924,0.90145 0.678934,1.686651 1.66879,1.751377 0.989856,0.06473 1.850572,-0.615269 1.919812,-1.516719 z M 68.86386,72.328514 c 0.04613,-0.600512 0.620468,-1.054264 1.279874,-1.011146 0.659405,0.04312 1.158651,0.567072 1.112526,1.167585 -0.04613,0.600513 -0.620469,1.054264 -1.279874,1.011146 -0.659406,-0.04312 -1.158652,-0.567072 -1.112526,-1.167585 z m 3.394144,-1.146603 -0.209185,2.723413 c -0.06924,0.901449 0.678935,1.68665 1.668791,1.751377 l 4.784803,0.312877 0.08367,-1.089365 4.485753,0.293323 0.29286,-3.812779 -4.485754,-0.293323 0.08367,-1.089364 -4.784803,-0.312878 c -0.989856,-0.06473 -1.850572,0.615269 -1.919813,1.516719 z m 6.094585,-0.696314 -0.04184,0.544683 -3.917559,-0.256168 -0.04184,0.544682 8.403312,0.549492 -0.08367,1.089364 -4.515659,-0.295277 -0.04183,0.544682 4.515658,0.295278 -0.08367,1.089365 -8.403312,-0.54949 -0.04184,0.544683 3.917559,0.256167 -0.04184,0.544683 -4.216609,-0.275723 c -0.659405,-0.04312 -1.158651,-0.567072 -1.112526,-1.167584 l 0.209185,-2.723414 c 0.04613,-0.600511 0.620469,-1.054265 1.279875,-1.011146 z"
       id="path12"
       style="display:inline;stroke-width:0.0143049" /><rect
       style="display:inline;fill:none;stroke:#000000;stroke-width:0.256059;stroke-dasharray:none;stroke-opacity:1"
       id="rect9"
       width="25.742666"
       height="37.186043"
       x="104.03499"
       y="91.198982"
       transform="matrix(0.99381649,0.11103508,-0.10214486,0.99476954,0,0)" /><rect
       style="display:inline;fill:none;stroke:#000000;stroke-width:0.256059;stroke-dasharray:none;stroke-opacity:1"
       id="rect10"
       width="25.743"
       height="37.186043"
       x="103.3269"
       y="55.171337"
       transform="matrix(0.99473062,0.1025231,-0.09362505,0.99560753,0,0)" /><rect
       style="display:inline;fill:none;stroke:#000000;stroke-width:0.269559;stroke-dasharray:none;stroke-opacity:1"
       id="rect7"
       width="34.247494"
       height="56.43816"
       x="69.423828"
       y="124.9901"
       transform="matrix(0.99022252,0.13949672,-0.14414243,0.98955696,0,0)" /><rect
       style="display:inline;fill:none;stroke:#000000;stroke-width:0.256059;stroke-dasharray:none;stroke-opacity:1"
       id="rect8"
       width="25.742666"
       height="37.186043"
       x="102.62242"
       y="129.79166"
       transform="matrix(0.99473062,0.1025231,-0.09362505,0.99560753,0,0)" /><rect
       style="fill:none;stroke:#000000;stroke-width:0.237736;stroke-dasharray:none;stroke-opacity:1"
       id="rect13"
       width="46.010616"
       height="29.032822"
       x="130.27162"
       y="-12.427628"
       transform="matrix(0.99088008,0.13474664,-0.10027397,0.99495986,0,0)" /><rect
       style="display:inline;fill:none;stroke:#000000;stroke-width:0.256842;stroke-dasharray:none;stroke-opacity:1"
       id="rect13-6"
       width="53.637047"
       height="29.068729"
       x="176.19325"
       y="-8.7486019"
       transform="matrix(0.99330546,0.11551741,-0.11703613,0.99312766,0,0)" /><rect
       style="display:inline;fill:none;stroke:#000000;stroke-width:0.256;stroke-dasharray:none;stroke-opacity:1"
       id="rect13-60"
       width="53.289318"
       height="29.0669"
       x="230.16882"
       y="-9.1982479"
       transform="rotate(6.6771334)" /><rect
       style="fill:#e6e6e6;stroke:#000000;stroke-width:0.246687;stroke-dasharray:none;stroke-opacity:1"
       id="rect14"
       width="25.596256"
       height="23.486427"
       x="44.565151"
       y="40.63969"
       ry="0" /></g><g
     id="layer4"
     style="display:inline"
     transform="translate(-42.696099,-5.7252132)"><use
       x="0"
       y="0"
       xlink:href="#rect6"
       id="use14"
       style="display:inline"
       transform="translate(0.25545977,-0.24633621)" /><use
       x="0"
       y="0"
       xlink:href="#rect12"
       id="use15"
       style="display:inline"
       transform="translate(0.25545977,-0.24633621)" /><use
       x="0"
       y="0"
       xlink:href="#rect11"
       id="use16"
       style="display:inline"
       transform="translate(0.25545977,-0.24633621)" /><use
       x="0"
       y="0"
       xlink:href="#path13"
       id="use17"
       style="display:inline"
       transform="translate(0.25545977,-0.24633621)" /><use
       x="0"
       y="0"
       xlink:href="#path12"
       id="use18"
       style="display:inline"
       transform="translate(0.25545977,-0.24633621)" /><use
       x="0"
       y="0"
       xlink:href="#rect9"
       id="use19"
       style="display:inline"
       transform="translate(0.25545977,-0.24633621)" /><use
       x="0"
       y="0"
       xlink:href="#rect10"
       id="use20"
       style="display:inline"
       transform="translate(0.25545977,-0.24633621)" /><use
       x="0"
       y="0"
       xlink:href="#rect7"
       id="use21"
       style="display:inline"
       transform="translate(0.25545977,-0.24633621)" /><use
       x="0"
       y="0"
       xlink:href="#rect8"
       id="use22"
       style="display:inline"
       transform="translate(0.25545977,-0.24633621)" /><use
       x="0"
       y="0"
       xlink:href="#rect13"
       id="use24"
       style="display:inline"
       transform="matrix(0.69978863,-0.08660498,-0.01254251,1.0015721,38.318488,11.940915)" /><use
       x="0"
       y="0"
       xlink:href="#rect13-6"
       id="use25"
       style="display:inline"
       transform="matrix(0.6468559,-0.04928736,0.00183406,1.0014473,81.211165,9.6169607)" /><use
       x="0"
       y="0"
       xlink:href="#rect13-60"
       id="use26"
       style="display:inline"
       transform="rotate(-2.9591538,198.85715,18.525021)" /><use
       x="0"
       y="0"
       xlink:href="#rect14"
       id="use27"
       style="display:inline"
       transform="translate(0.25545977,-0.24633621)" /><rect
       style="fill:#fefefe;fill-opacity:1;stroke:#000000;stroke-width:0.256;stroke-dasharray:none;stroke-opacity:1"
       id="rect27"
       width="72.075996"
       height="114.95689"
       x="216.98555"
       y="60.598282"
       transform="rotate(5.738345)" /><use
       x="0"
       y="0"
       xlink:href="#rect13-6"
       id="use25-0"
       style="display:inline"
       transform="matrix(0.6468559,-0.04928736,0.00183406,1.0014473,47.01605,6.1956245)" /><text
       xml:space="preserve"
       transform="matrix(0.26458333,0,0,0.26458333,51.329167,-51.064583)"
       id="text23"
       style="font-size:40px;line-height:0;text-align:start;writing-mode:lr-tb;direction:ltr;white-space:pre;shape-inside:url(#rect23);display:inline;fill:#000000;fill-opacity:1;stroke:#000000;stroke-width:0.990236;stroke-dasharray:none"><tspan
         x="558"
         y="319.49321"
         id="tspan1">5231</tspan></text><text
       xml:space="preserve"
       style="font-size:10.5833px;line-height:0;text-align:start;writing-mode:lr-tb;direction:ltr;text-anchor:start;fill:#000000;fill-opacity:1;stroke:#000000;stroke-width:0.262;stroke-dasharray:none"
       x="161.925"
       y="29.104162"
       id="text25"><tspan
         id="tspan25"
         style="stroke-width:0.262"
         x="161.925"
         y="29.104162">5232</tspan></text><text
       xml:space="preserve"
       style="font-size:10.5833px;line-height:0;text-align:start;writing-mode:lr-tb;direction:ltr;text-anchor:start;fill:#000000;fill-opacity:1;stroke:#000000;stroke-width:0.262;stroke-dasharray:none"
       x="131.7625"
       y="25.929165"
       id="text26"><tspan
         id="tspan26"
         style="stroke-width:0.262"
         x="131.7625"
         y="25.929165">5233</tspan></text><text
       xml:space="preserve"
       style="font-size:10.5833px;line-height:0;text-align:start;writing-mode:lr-tb;direction:ltr;text-anchor:start;fill:#000000;fill-opacity:1;stroke:#000000;stroke-width:0.262;stroke-dasharray:none"
       x="48.683338"
       y="168.01041"
       id="text27"><tspan
         id="tspan27"
         style="stroke-width:0.262"
         x="48.683338"
         y="168.01041">5234</tspan></text><text
       xml:space="preserve"
       style="font-size:10.5833px;line-height:0;text-align:start;writing-mode:lr-tb;direction:ltr;text-anchor:start;fill:#000000;fill-opacity:1;stroke:#000000;stroke-width:0.262;stroke-dasharray:none"
       x="61.647923"
       y="122.76666"
       id="text28"><tspan
         id="tspan28"
         style="stroke-width:0.262"
         x="61.647923"
         y="122.76666">5235</tspan></text><text
       xml:space="preserve"
       style="font-size:9.64344px;line-height:0;text-align:start;writing-mode:lr-tb;direction:ltr;text-anchor:start;fill:#000000;fill-opacity:1;stroke:#000000;stroke-width:0.238733;stroke-dasharray:none"
       x="91.235138"
       y="158.27861"
       id="text29"
       transform="scale(0.97258289,1.02819)"><tspan
         id="tspan29"
         style="stroke-width:0.238733"
         x="91.235138"
         y="158.27861">5236</tspan></text><text
       xml:space="preserve"
       style="font-size:10.083px;line-height:0;text-align:start;writing-mode:lr-tb;direction:ltr;text-anchor:start;fill:#000000;fill-opacity:1;stroke:#000000;stroke-width:0.249615;stroke-dasharray:none"
       x="97.437561"
       y="121.57081"
       id="text30"
       transform="scale(0.95126062,1.0512366)"><tspan
         id="tspan30"
         style="stroke-width:0.249615"
         x="97.437561"
         y="121.57081">5237</tspan></text><text
       xml:space="preserve"
       style="font-size:10.344px;line-height:0;text-align:start;writing-mode:lr-tb;direction:ltr;text-anchor:start;fill:#000000;fill-opacity:1;stroke:#000000;stroke-width:0.256076;stroke-dasharray:none"
       x="104.90728"
       y="81.948746"
       id="text31"
       transform="scale(0.91644312,1.0911752)"><tspan
         id="tspan31"
         style="stroke-width:0.256076"
         x="104.90728"
         y="81.948746">5238</tspan></text><text
       xml:space="preserve"
       style="font-size:10.5833px;line-height:0;text-align:start;writing-mode:lr-tb;direction:ltr;text-anchor:start;fill:#000000;fill-opacity:1;stroke:#000000;stroke-width:0.262;stroke-dasharray:none"
       x="228.59999"
       y="35.189583"
       id="text32"><tspan
         id="tspan32"
         style="stroke-width:0.262"
         x="228.59999"
         y="35.189583">地学実験室</tspan></text></g></svg>
